<svg width="30" height="30" viewBox="0 0 30 30" fill="none" xmlns="http://www.w3.org/2000/svg">
<g id="vuesax/bulk/box">
<g id="vuesax/bulk/box_2">
<g id="box">
<path id="Vector" opacity="0.4" d="M26.3008 8.9875L15.0008 15.525L3.70081 8.9875C4.20081 8.0625 4.92581 7.25 5.73831 6.8L12.4133 3.1C13.8383 2.3 16.1633 2.3 17.5883 3.1L24.2633 6.8C25.0758 7.25 25.8008 8.0625 26.3008 8.9875Z" fill="#FF1971"/>
<path id="Vector_2" opacity="0.6" d="M15.0008 15.525V27.5C14.0633 27.5 13.1258 27.3001 12.4133 26.9001L5.73828 23.2C4.22578 22.3625 2.98828 20.2625 2.98828 18.5375V11.4625C2.98828 10.6625 3.26328 9.78755 3.70078 8.98755L15.0008 15.525Z" fill="#FF1971"/>
<path id="Vector_3" d="M27.0132 11.4625V18.5375C27.0132 20.2625 25.7757 22.3625 24.2632 23.2L17.5882 26.9001C16.8757 27.3001 15.9382 27.5 15.0007 27.5V15.525L26.3007 8.98755C26.7382 9.78755 27.0132 10.6625 27.0132 11.4625Z" fill="#FF1971"/>
</g>
</g>
</g>
</svg>
