<svg width="30" height="30" viewBox="0 0 30 30" fill="none" xmlns="http://www.w3.org/2000/svg">
<g id="vuesax/bulk/filter-add">
<g id="vuesax/bulk/filter-add_2">
<g id="filter-add">
<path id="Vector" opacity="0.4" d="M6.76253 2.5H23.225C24.6 2.5 25.725 3.63749 25.725 5.02499V7.79999C25.725 8.81249 25.1 10.075 24.475 10.7L19.1125 15.5C18.3625 16.1375 17.8625 17.4 17.8625 18.4V23.825C17.8625 24.5875 17.3625 25.5875 16.7375 25.975L15 27.125C13.375 28.1375 11.1375 27 11.1375 24.975V18.2875C11.1375 17.4 10.6375 16.2625 10.1375 15.6375L5.40003 10.5875C4.77503 9.95 4.27502 8.82502 4.27502 8.06252V5.16251C4.27502 3.63751 5.40003 2.5 6.76253 2.5Z" fill="#A2CF96"/>
<path id="Vector_2" d="M21.1 12.5C17.825 12.5 15.1625 15.1625 15.1625 18.4375C15.1625 19.55 15.475 20.6 16.025 21.5C17.05 23.225 18.9375 24.375 21.1 24.375C23.2625 24.375 25.15 23.2125 26.175 21.5C26.725 20.6125 27.0375 19.55 27.0375 18.4375C27.0375 15.1625 24.3875 12.5 21.1 12.5ZM23.325 19.35H22.0375V20.6875C22.0375 21.2 21.6125 21.625 21.1 21.625C20.5875 21.625 20.1625 21.2 20.1625 20.6875V19.35H18.8875C18.375 19.35 17.95 18.925 17.95 18.4125C17.95 17.9 18.375 17.475 18.8875 17.475H20.1625V16.25C20.1625 15.7375 20.5875 15.3125 21.1 15.3125C21.6125 15.3125 22.0375 15.7375 22.0375 16.25V17.475H23.325C23.8375 17.475 24.2625 17.9 24.2625 18.4125C24.2625 18.925 23.8375 19.35 23.325 19.35Z" fill="#A2CF96"/>
</g>
</g>
</g>
</svg>
