<svg width="30" height="30" viewBox="0 0 30 30" fill="none" xmlns="http://www.w3.org/2000/svg">
<g id="vuesax/bulk/frame">
<g id="vuesax/bulk/frame_2">
<g id="vuesax/bulk/frame_3">
<g id="frame">
<path id="Vector" opacity="0.4" d="M26.5625 11.4375C23.675 6.89997 19.45 4.28748 15 4.28748C12.775 4.28748 10.6125 4.93748 8.6375 6.14998C6.6625 7.37498 4.8875 9.16247 3.4375 11.4375C2.1875 13.4 2.1875 16.5875 3.4375 18.55C6.325 23.1 10.55 25.7 15 25.7C17.225 25.7 19.3875 25.05 21.3625 23.8375C23.3375 22.6125 25.1125 20.825 26.5625 18.55C27.8125 16.6 27.8125 13.4 26.5625 11.4375ZM15 20.05C12.2 20.05 9.95 17.7875 9.95 15C9.95 12.2125 12.2 9.94998 15 9.94998C17.8 9.94998 20.05 12.2125 20.05 15C20.05 17.7875 17.8 20.05 15 20.05Z" fill="#2E2836"/>
<path id="Vector_2" d="M15 11.425C13.0375 11.425 11.4375 13.025 11.4375 15C11.4375 16.9625 13.0375 18.5625 15 18.5625C16.9625 18.5625 18.575 16.9625 18.575 15C18.575 13.0375 16.9625 11.425 15 11.425Z" fill="#2E2836"/>
</g>
</g>
</g>
</g>
</svg>
