<svg width="30" height="30" viewBox="0 0 30 30" fill="none" xmlns="http://www.w3.org/2000/svg">
<g id="vuesax/bulk/key">
<g id="vuesax/bulk/key_2">
<g id="vuesax/bulk/key_3">
<g id="key">
<path id="Vector" opacity="0.4" d="M24.7376 5.27502C21.0376 1.58752 15.0376 1.58752 11.3626 5.27502C8.77506 7.83752 8.00006 11.525 9.00006 14.775L3.12506 20.65C2.71256 21.075 2.42506 21.9125 2.51256 22.5125L2.88756 25.2375C3.02506 26.1375 3.86256 26.9875 4.76256 27.1125L7.48756 27.4875C8.08756 27.575 8.92506 27.3 9.35006 26.8625L10.3751 25.8375C10.6251 25.6 10.6251 25.2 10.3751 24.95L7.95006 22.525C7.58756 22.1625 7.58756 21.5625 7.95006 21.2C8.31256 20.8375 8.91256 20.8375 9.27506 21.2L11.7126 23.6375C11.9501 23.875 12.3501 23.875 12.5876 23.6375L15.2376 21C18.4751 22.0125 22.1626 21.225 24.7376 18.6625C28.4251 14.975 28.4251 8.96252 24.7376 5.27502ZM18.1251 15C16.4001 15 15.0001 13.6 15.0001 11.875C15.0001 10.15 16.4001 8.75002 18.1251 8.75002C19.8501 8.75002 21.2501 10.15 21.2501 11.875C21.2501 13.6 19.8501 15 18.1251 15Z" fill="#2E2836"/>
<path id="Vector_2" d="M18.125 15C19.8509 15 21.25 13.6009 21.25 11.875C21.25 10.1491 19.8509 8.75 18.125 8.75C16.3991 8.75 15 10.1491 15 11.875C15 13.6009 16.3991 15 18.125 15Z" fill="#2E2836"/>
</g>
</g>
</g>
</g>
</svg>
