<svg width="30" height="30" viewBox="0 0 30 30" fill="none" xmlns="http://www.w3.org/2000/svg">
<g id="vuesax/bulk/login">
<g id="vuesax/bulk/login_2">
<g id="vuesax/bulk/login_3">
<g id="login">
<path id="Vector" opacity="0.4" d="M11.25 9V20.9875C11.25 25 13.75 27.5 17.75 27.5H20.9875C24.9875 27.5 27.4875 25 27.4875 21V9C27.5 5 25 2.5 21 2.5H17.75C13.75 2.5 11.25 5 11.25 9Z" fill="#FF1971"/>
<path id="Vector_2" d="M15.5375 10.15L19.725 14.3375C20.0875 14.7 20.0875 15.3 19.725 15.6625L15.5375 19.85C15.175 20.2125 14.575 20.2125 14.2125 19.85C13.85 19.4875 13.85 18.8875 14.2125 18.525L16.8 15.9375H3.4375C2.925 15.9375 2.5 15.5125 2.5 15C2.5 14.4875 2.925 14.0625 3.4375 14.0625H16.8L14.2125 11.475C14.025 11.2875 13.9375 11.05 13.9375 10.8125C13.9375 10.575 14.025 10.3375 14.2125 10.15C14.575 9.77502 15.1625 9.77502 15.5375 10.15Z" fill="#FF1971"/>
</g>
</g>
</g>
</g>
</svg>
