<svg width="30" height="30" viewBox="0 0 30 30" fill="none" xmlns="http://www.w3.org/2000/svg">
<g id="vuesax/bulk/moon">
<g id="vuesax/bulk/moon_2">
<g id="moon">
<path id="Vector" d="M11.25 23.75C11.25 24.8 11.4125 25.825 11.7125 26.775C6.9125 25.1125 3.2875 20.7 2.9125 15.5375C2.5375 10.05 5.7 4.92496 10.8125 2.77496C12.1375 2.22496 12.8125 2.62496 13.1 2.91246C13.375 3.18746 13.7625 3.84996 13.2125 5.11246C12.65 6.41246 12.375 7.78746 12.375 9.21246C12.3875 11.7625 13.3875 14.125 15.0125 15.9375C12.725 17.7625 11.25 20.5875 11.25 23.75Z" fill="#2E2836"/>
<path id="Vector_2" opacity="0.4" d="M26.5125 22.15C24.0375 25.5125 20.1125 27.4875 15.925 27.4875C15.725 27.4875 15.525 27.475 15.325 27.4625C14.075 27.4125 12.8625 27.175 11.7125 26.775C11.4125 25.825 11.25 24.8 11.25 23.75C11.25 20.5875 12.725 17.7625 15.0125 15.9375C16.85 18 19.4875 19.3375 22.4 19.4625C23.1875 19.5 23.975 19.4375 24.75 19.3C26.15 19.05 26.7125 19.575 26.9125 19.9125C27.125 20.25 27.35 20.9875 26.5125 22.15Z" fill="#2E2836"/>
</g>
</g>
</g>
</svg>
