<svg width="30" height="30" viewBox="0 0 30 30" fill="none" xmlns="http://www.w3.org/2000/svg">
<g id="vuesax/bulk/search-normal" opacity="0.4">
<g id="vuesax/bulk/search-normal_2">
<g id="search-normal">
<path id="Vector" opacity="0.4" d="M13.7625 25.025C19.9826 25.025 25.025 19.9826 25.025 13.7625C25.025 7.54239 19.9826 2.5 13.7625 2.5C7.54239 2.5 2.5 7.54239 2.5 13.7625C2.5 19.9826 7.54239 25.025 13.7625 25.025Z" fill="#2E2836"/>
<path id="Vector_2" d="M27.4876 23.6875C27.0751 22.925 26.2001 22.5 25.0251 22.5C24.1376 22.5 23.3751 22.8625 22.9251 23.4875C22.4751 24.1125 22.3751 24.95 22.6501 25.7875C23.1876 27.4125 24.1251 27.775 24.6376 27.8375C24.7126 27.85 24.7876 27.85 24.8751 27.85C25.4251 27.85 26.2751 27.6125 27.1001 26.375C27.7626 25.4125 27.8876 24.45 27.4876 23.6875Z" fill="#2E2836"/>
</g>
</g>
</g>
</svg>
