<svg width="30" height="30" viewBox="0 0 30 30" fill="none" xmlns="http://www.w3.org/2000/svg">
<g id="vuesax/bulk/shopping-cart">
<g id="vuesax/bulk/shopping-cart_2">
<g id="shopping-cart">
<path id="Vector" d="M20.3125 28.125C21.5206 28.125 22.5 27.1456 22.5 25.9375C22.5 24.7294 21.5206 23.75 20.3125 23.75C19.1044 23.75 18.125 24.7294 18.125 25.9375C18.125 27.1456 19.1044 28.125 20.3125 28.125Z" fill="#2E2836"/>
<path id="Vector_2" d="M10.3125 28.125C11.5206 28.125 12.5 27.1456 12.5 25.9375C12.5 24.7294 11.5206 23.75 10.3125 23.75C9.10438 23.75 8.125 24.7294 8.125 25.9375C8.125 27.1456 9.10438 28.125 10.3125 28.125Z" fill="#2E2836"/>
<path id="Vector_3" opacity="0.4" d="M6.05 4.925L5.8 7.9875C5.75 8.575 6.2125 9.0625 6.8 9.0625H25.9375C26.4625 9.0625 26.9 8.66249 26.9375 8.13749C27.1 5.92499 25.4125 4.125 23.2 4.125H7.86249C7.73749 3.575 7.48749 3.05 7.09999 2.6125C6.48749 1.95 5.61251 1.5625 4.71251 1.5625H2.5C1.9875 1.5625 1.5625 1.9875 1.5625 2.5C1.5625 3.0125 1.9875 3.4375 2.5 3.4375H4.67501C5.06251 3.4375 5.425 3.60001 5.6875 3.87501C5.95 4.16251 6.075 4.5375 6.05 4.925Z" fill="#2E2836"/>
<path id="Vector_4" d="M25.6375 10.9375H6.46251C5.93751 10.9375 5.51251 11.3375 5.46251 11.85L5.01251 17.2875C4.83751 19.4125 6.51251 21.25 8.65001 21.25H22.55C24.425 21.25 26.075 19.7125 26.2125 17.8375L26.625 12C26.675 11.425 26.225 10.9375 25.6375 10.9375Z" fill="#2E2836"/>
</g>
</g>
</g>
</svg>
