<svg width="30" height="30" viewBox="0 0 30 30" fill="none" xmlns="http://www.w3.org/2000/svg">
<g id="vuesax/bulk/star">
<g id="vuesax/bulk/star_2">
<g id="star">
<g id="Group">
<path id="Vector" d="M17.5909 2.1663L20.2381 7.49003C20.5948 8.22629 21.5524 8.9248 22.3597 9.07582L27.1473 9.86872C30.2076 10.3784 30.921 12.6061 28.7243 14.8338L24.9881 18.5906C24.3686 19.2136 24.0119 20.4407 24.2184 21.328L25.2885 25.9721C26.1334 29.6345 24.1808 31.0692 20.9704 29.1436L16.4832 26.4629C15.6758 25.9721 14.3241 25.9721 13.5168 26.4629L9.02958 29.1436C5.8191 31.0504 3.86655 29.6345 4.71141 25.9721L5.78159 21.328C5.98811 20.4595 5.63138 19.2324 5.01182 18.5906L1.27566 14.8338C-0.920986 12.625 -0.207553 10.3973 2.85273 9.86872L7.64027 9.07582C8.44759 8.94368 9.40511 8.22629 9.76183 7.49003L12.4091 2.1663C13.8172 -0.722101 16.1453 -0.722101 17.5909 2.1663Z" fill="#FFB900"/>
</g>
</g>
</g>
</g>
</svg>
