<svg width="5" height="5" viewBox="0 0 5 5" fill="none" xmlns="http://www.w3.org/2000/svg">
<g id="vuesax/bulk/profile">
<g id="vuesax/bulk/profile_2">
<g id="vuesax/bulk/profile_3">
<g id="profile">
<path id="Vector" opacity="0.4" d="M2.49996 0.416626C1.95413 0.416626 1.51038 0.860376 1.51038 1.40621C1.51038 1.94163 1.92913 2.37496 2.47496 2.39371C2.49163 2.39163 2.50829 2.39163 2.52079 2.39371C2.52496 2.39371 2.52704 2.39371 2.53121 2.39371C2.53329 2.39371 2.53329 2.39371 2.53538 2.39371C3.06871 2.37496 3.48746 1.94163 3.48954 1.40621C3.48954 0.860376 3.04579 0.416626 2.49996 0.416626Z" fill="#2E2836"/>
<path id="Vector_2" d="M3.55833 2.94797C2.97708 2.56047 2.02916 2.56047 1.44374 2.94797C1.17916 3.12506 1.03333 3.36464 1.03333 3.62089C1.03333 3.87714 1.17916 4.11464 1.44166 4.28964C1.73333 4.48547 2.11666 4.58339 2.49999 4.58339C2.88333 4.58339 3.26666 4.48547 3.55833 4.28964C3.82083 4.11256 3.96666 3.87506 3.96666 3.61672C3.96458 3.36047 3.82083 3.12297 3.55833 2.94797Z" fill="#2E2836"/>
</g>
</g>
</g>
</g>
</svg>
