<svg width="16" height="16" viewBox="0 0 16 16" fill="none" xmlns="http://www.w3.org/2000/svg">
<path d="M7.99973 8.86666C7.91307 8.86666 7.8264 8.84667 7.7464 8.80001L1.85974 5.39335C1.61974 5.25335 1.53973 4.94666 1.67973 4.70666C1.81973 4.46666 2.11972 4.38665 2.36639 4.52665L7.99973 7.78666L13.5997 4.54667C13.8397 4.40667 14.1464 4.49335 14.2864 4.72668C14.4264 4.96668 14.3397 5.27333 14.1064 5.41333L8.25974 8.80001C8.17308 8.84001 8.0864 8.86666 7.99973 8.86666Z" fill="#292D32"/>
<path d="M8 14.9067C7.72667 14.9067 7.5 14.68 7.5 14.4067V8.35999C7.5 8.08665 7.72667 7.85999 8 7.85999C8.27333 7.85999 8.5 8.08665 8.5 8.35999V14.4067C8.5 14.68 8.27333 14.9067 8 14.9067Z" fill="#292D32"/>
<path d="M7.99992 15.1667C7.41325 15.1667 6.83325 15.04 6.37325 14.7867L2.81325 12.8067C1.84659 12.2734 1.09326 10.9867 1.09326 9.88004V6.11336C1.09326 5.00669 1.84659 3.72672 2.81325 3.18672L6.37325 1.21337C7.28658 0.706707 8.71325 0.706707 9.62659 1.21337L13.1866 3.19335C14.1533 3.72669 14.9066 5.01336 14.9066 6.12003V9.88671C14.9066 10.9934 14.1533 12.2733 13.1866 12.8133L9.62659 14.7867C9.16659 15.04 8.58658 15.1667 7.99992 15.1667ZM7.99992 1.83337C7.57992 1.83337 7.16659 1.92004 6.85992 2.08671L3.29993 4.06669C2.65993 4.42669 2.09326 5.38003 2.09326 6.12003V9.88671C2.09326 10.62 2.65993 11.58 3.29993 11.94L6.85992 13.92C7.46659 14.26 8.53325 14.26 9.13991 13.92L12.6999 11.94C13.3399 11.58 13.9066 10.6267 13.9066 9.88671V6.12003C13.9066 5.3867 13.3399 4.42669 12.6999 4.06669L9.13991 2.08671C8.83325 1.92004 8.41992 1.83337 7.99992 1.83337Z" fill="#292D32"/>
<path d="M11.3333 9.32674C11.06 9.32674 10.8333 9.10007 10.8333 8.82674V6.68009L4.75329 3.17342C4.51329 3.03342 4.43328 2.72674 4.57328 2.49341C4.71328 2.25341 5.01329 2.17339 5.25329 2.31339L11.58 5.96675C11.7333 6.05342 11.8333 6.22006 11.8333 6.40006V8.84009C11.8333 9.10009 11.6066 9.32674 11.3333 9.32674Z" fill="#292D32"/>
</svg>
