<svg width="100" height="100" viewBox="0 0 100 100" fill="none" xmlns="http://www.w3.org/2000/svg">
<rect width="100" height="100" rx="5" fill="#FFCECE"/>
<path d="M50 52.75C49.59 52.75 49.25 52.41 49.25 52V47C49.25 46.59 49.59 46.25 50 46.25C50.41 46.25 50.75 46.59 50.75 47V52C50.75 52.41 50.41 52.75 50 52.75Z" fill="#F7003B"/>
<path d="M50 56.0001C49.94 56.0001 49.87 55.9901 49.8 55.9801C49.74 55.9701 49.68 55.9501 49.62 55.9201C49.56 55.9001 49.5 55.8701 49.44 55.8301C49.39 55.7901 49.34 55.7501 49.29 55.7101C49.11 55.5201 49 55.2601 49 55.0001C49 54.7401 49.11 54.4801 49.29 54.2901C49.34 54.2501 49.39 54.2101 49.44 54.1701C49.5 54.1301 49.56 54.1001 49.62 54.0801C49.68 54.0501 49.74 54.0301 49.8 54.0201C49.93 53.9901 50.07 53.9901 50.19 54.0201C50.26 54.0301 50.32 54.0501 50.38 54.0801C50.44 54.1001 50.5 54.1301 50.56 54.1701C50.61 54.2101 50.66 54.2501 50.71 54.2901C50.89 54.4801 51 54.7401 51 55.0001C51 55.2601 50.89 55.5201 50.71 55.7101C50.66 55.7501 50.61 55.7901 50.56 55.8301C50.5 55.8701 50.44 55.9001 50.38 55.9201C50.32 55.9501 50.26 55.9701 50.19 55.9801C50.13 55.9901 50.06 56.0001 50 56.0001Z" fill="#F7003B"/>
<path d="M56.06 60.16H43.94C41.99 60.16 40.5 59.45 39.74 58.17C38.99 56.89 39.09 55.24 40.04 53.53L46.1 42.63C47.1 40.83 48.48 39.84 50 39.84C51.52 39.84 52.9 40.83 53.9 42.63L59.96 53.54C60.91 55.25 61.02 56.89 60.26 58.18C59.5 59.45 58.01 60.16 56.06 60.16ZM50 41.34C49.06 41.34 48.14 42.06 47.41 43.36L41.36 54.27C40.68 55.49 40.57 56.61 41.04 57.42C41.51 58.23 42.55 58.67 43.95 58.67H56.07C57.47 58.67 58.5 58.23 58.98 57.42C59.46 56.61 59.34 55.5 58.66 54.27L52.59 43.36C51.86 42.06 50.94 41.34 50 41.34Z" fill="#F7003B"/>
</svg>
