<svg width="328" height="164" viewBox="0 0 328 164" fill="none" xmlns="http://www.w3.org/2000/svg">
<rect width="328" height="164" rx="5" fill="#FFECD1"/>
<path d="M167 92.75H161C155.57 92.75 153.25 90.43 153.25 85V79C153.25 73.57 155.57 71.25 161 71.25H167C172.43 71.25 174.75 73.57 174.75 79V85C174.75 90.43 172.43 92.75 167 92.75ZM161 72.75C156.39 72.75 154.75 74.39 154.75 79V85C154.75 89.61 156.39 91.25 161 91.25H167C171.61 91.25 173.25 89.61 173.25 85V79C173.25 74.39 171.61 72.75 167 72.75H161Z" fill="#292D32"/>
<path d="M161 80.75C159.48 80.75 158.25 79.52 158.25 78C158.25 76.48 159.48 75.25 161 75.25C162.52 75.25 163.75 76.48 163.75 78C163.75 79.52 162.52 80.75 161 80.75ZM161 76.75C160.31 76.75 159.75 77.31 159.75 78C159.75 78.69 160.31 79.25 161 79.25C161.69 79.25 162.25 78.69 162.25 78C162.25 77.31 161.69 76.75 161 76.75Z" fill="#292D32"/>
<path d="M154.67 89.7C154.43 89.7 154.19 89.58 154.05 89.37C153.82 89.03 153.91 88.56 154.26 88.33L159.19 85.02C160.27 84.29 161.76 84.38 162.74 85.21L163.07 85.5C163.57 85.93 164.42 85.93 164.91 85.5L169.07 81.93C170.13 81.02 171.8 81.02 172.87 81.93L174.5 83.33C174.81 83.6 174.85 84.07 174.58 84.39C174.31 84.7 173.84 84.74 173.52 84.47L171.89 83.07C171.39 82.64 170.54 82.64 170.04 83.07L165.88 86.64C164.82 87.55 163.15 87.55 162.08 86.64L161.75 86.35C161.29 85.96 160.53 85.92 160.02 86.27L155.09 89.58C154.96 89.66 154.81 89.7 154.67 89.7Z" fill="#292D32"/>
</svg>
