<svg width="328" height="164" viewBox="0 0 328 164" fill="none" xmlns="http://www.w3.org/2000/svg">
<rect width="328" height="164" rx="5" fill="#FFCECE"/>
<path d="M164 84.75C163.59 84.75 163.25 84.41 163.25 84V79C163.25 78.59 163.59 78.25 164 78.25C164.41 78.25 164.75 78.59 164.75 79V84C164.75 84.41 164.41 84.75 164 84.75Z" fill="#F7003B"/>
<path d="M164 88.0001C163.94 88.0001 163.87 87.9901 163.8 87.9801C163.74 87.9701 163.68 87.9501 163.62 87.9201C163.56 87.9001 163.5 87.8701 163.44 87.8301C163.39 87.7901 163.34 87.7501 163.29 87.7101C163.11 87.5201 163 87.2601 163 87.0001C163 86.7401 163.11 86.4801 163.29 86.2901C163.34 86.2501 163.39 86.2101 163.44 86.1701C163.5 86.1301 163.56 86.1001 163.62 86.0801C163.68 86.0501 163.74 86.0301 163.8 86.0201C163.93 85.9901 164.07 85.9901 164.19 86.0201C164.26 86.0301 164.32 86.0501 164.38 86.0801C164.44 86.1001 164.5 86.1301 164.56 86.1701C164.61 86.2101 164.66 86.2501 164.71 86.2901C164.89 86.4801 165 86.7401 165 87.0001C165 87.2601 164.89 87.5201 164.71 87.7101C164.66 87.7501 164.61 87.7901 164.56 87.8301C164.5 87.8701 164.44 87.9001 164.38 87.9201C164.32 87.9501 164.26 87.9701 164.19 87.9801C164.13 87.9901 164.06 88.0001 164 88.0001Z" fill="#F7003B"/>
<path d="M170.06 92.16H157.94C155.99 92.16 154.5 91.45 153.74 90.17C152.99 88.89 153.09 87.24 154.04 85.53L160.1 74.63C161.1 72.83 162.48 71.84 164 71.84C165.52 71.84 166.9 72.83 167.9 74.63L173.96 85.54C174.91 87.25 175.02 88.89 174.26 90.18C173.5 91.45 172.01 92.16 170.06 92.16ZM164 73.34C163.06 73.34 162.14 74.06 161.41 75.36L155.36 86.27C154.68 87.49 154.57 88.61 155.04 89.42C155.51 90.23 156.55 90.67 157.95 90.67H170.07C171.47 90.67 172.5 90.23 172.98 89.42C173.46 88.61 173.34 87.5 172.66 86.27L166.59 75.36C165.86 74.06 164.94 73.34 164 73.34Z" fill="#F7003B"/>
</svg>
