<svg width="80" height="81" viewBox="0 0 80 81" fill="none" xmlns="http://www.w3.org/2000/svg">
<path d="M44.6336 60.8667C44.0002 60.8667 43.3669 60.6334 42.8669 60.1334L33.6669 50.9334C32.7002 49.9667 32.7002 48.3667 33.6669 47.4C34.6336 46.4334 36.2336 46.4334 37.2002 47.4L46.4002 56.6C47.3669 57.5667 47.3669 59.1667 46.4002 60.1334C45.9336 60.6334 45.3002 60.8667 44.6336 60.8667Z" fill="#FF1971"/>
<path d="M35.3667 60.9667C34.7333 60.9667 34.1 60.7334 33.6 60.2334C32.6333 59.2667 32.6333 57.6667 33.6 56.7L42.8 47.5C43.7667 46.5334 45.3667 46.5334 46.3333 47.5C47.3 48.4667 47.3 50.0667 46.3333 51.0334L37.1333 60.2334C36.6333 60.7334 36 60.9667 35.3667 60.9667Z" fill="#FF1971"/>
<path d="M17.2998 21.7667C16.6664 21.7667 15.9998 21.5 15.5331 21.0334C14.5664 20.0667 14.5664 18.4667 15.5331 17.5L27.6331 5.40005C28.5998 4.43338 30.1998 4.43338 31.1664 5.40005C32.1331 6.36672 32.1331 7.96672 31.1664 8.93338L19.0664 21.0334C18.5664 21.5 17.9331 21.7667 17.2998 21.7667Z" fill="#FF1971"/>
<path d="M62.7001 21.7667C62.0667 21.7667 61.4334 21.5334 60.9334 21.0334L48.8334 8.93338C47.8667 7.96672 47.8667 6.36672 48.8334 5.40005C49.8001 4.43338 51.4001 4.43338 52.3667 5.40005L64.4667 17.5C65.4334 18.4667 65.4334 20.0667 64.4667 21.0334C64.0001 21.5 63.3334 21.7667 62.7001 21.7667Z" fill="#FF1971"/>
<path d="M67.3665 35.8333C67.1332 35.8333 66.8998 35.8333 66.6665 35.8333H65.8998H13.3332C10.9998 35.8667 8.33317 35.8667 6.39984 33.9333C4.8665 32.4333 4.1665 30.1 4.1665 26.6667C4.1665 17.5 10.8665 17.5 14.0665 17.5H65.9332C69.1332 17.5 75.8332 17.5 75.8332 26.6667C75.8332 30.1333 75.1332 32.4333 73.5998 33.9333C71.8665 35.6667 69.5332 35.8333 67.3665 35.8333ZM14.0665 30.8333H66.6998C68.1998 30.8667 69.5998 30.8667 70.0665 30.4C70.2998 30.1667 70.7998 29.3667 70.7998 26.6667C70.7998 22.9 69.8665 22.5 65.8998 22.5H14.0665C10.0998 22.5 9.1665 22.9 9.1665 26.6667C9.1665 29.3667 9.69984 30.1667 9.89984 30.4C10.3665 30.8333 11.7998 30.8333 13.2665 30.8333H14.0665Z" fill="#FF1971"/>
<path d="M49.6332 76.3334H29.5332C17.5998 76.3334 14.9332 69.2334 13.8998 63.0667L9.19983 34.2334C8.9665 32.8667 9.89983 31.6 11.2665 31.3667C12.6332 31.1334 13.8998 32.0667 14.1332 33.4334L18.8332 62.2334C19.7998 68.1334 21.7998 71.3334 29.5332 71.3334H49.6332C58.1998 71.3334 59.1665 68.3334 60.2665 62.5334L65.8665 33.3667C66.1332 32 67.4332 31.1 68.7998 31.4C70.1665 31.6667 71.0332 32.9667 70.7665 34.3334L65.1665 63.5C63.8665 70.2667 61.6998 76.3334 49.6332 76.3334Z" fill="#FF1971"/>
</svg>
