<svg width="328" height="94" viewBox="0 0 328 94" fill="none" xmlns="http://www.w3.org/2000/svg">
<path opacity="0.4" d="M58.7125 46.2375V53.725C58.7125 57.175 55.9125 59.975 52.4625 59.975H41.5375C38.0875 59.975 35.2875 57.175 35.2875 53.725V46.325C36.2375 47.35 37.5875 47.9375 39.05 47.9375C40.625 47.9375 42.1375 47.15 43.0875 45.8875C43.9375 47.15 45.3875 47.9375 47 47.9375C48.6 47.9375 50.025 47.1875 50.8875 45.9375C51.85 47.175 53.3375 47.9375 54.8875 47.9375C56.4 47.9375 57.775 47.325 58.7125 46.2375Z" fill="#2E2836"/>
<path d="M50.7376 33.5625H43.2376L42.3126 42.7625C42.2376 43.6125 42.3626 44.4125 42.6751 45.1375C43.4001 46.8375 45.1001 47.9375 47.0001 47.9375C48.9251 47.9375 50.5876 46.8625 51.3376 45.15C51.5626 44.6125 51.7001 43.9875 51.7126 43.35V43.1125L50.7376 33.5625Z" fill="#2E2836"/>
<path opacity="0.6" d="M59.95 42.3375L59.5875 38.875C59.0625 35.1 57.35 33.5625 53.6875 33.5625H48.8875L49.8125 42.9375C49.825 43.0625 49.8375 43.2 49.8375 43.4375C49.9125 44.0875 50.1125 44.6875 50.4125 45.225C51.3125 46.875 53.0625 47.9375 54.8875 47.9375C56.55 47.9375 58.05 47.2 58.9875 45.9C59.7375 44.9 60.075 43.6375 59.95 42.3375Z" fill="#2E2836"/>
<path opacity="0.6" d="M40.2376 33.5625C36.5626 33.5625 34.8626 35.1 34.3251 38.9125L33.9876 42.35C33.8626 43.6875 34.2251 44.9875 35.0126 46C35.9626 47.2375 37.4251 47.9375 39.0501 47.9375C40.8751 47.9375 42.6251 46.875 43.5126 45.25C43.8376 44.6875 44.0501 44.0375 44.1126 43.3625L45.0876 33.575H40.2376V33.5625Z" fill="#2E2836"/>
<path d="M46.1875 52.825C44.6 52.9875 43.4 54.3375 43.4 55.9375V59.975H50.5875V56.375C50.6 53.7625 49.0625 52.525 46.1875 52.825Z" fill="#2E2836"/>
<circle cx="83" cy="47" r="1.5" fill="#2E2836"/>
<circle cx="105.5" cy="47" r="1.5" fill="#2E2836"/>
<circle cx="128" cy="47" r="1.5" fill="#2E2836"/>
<path opacity="0.4" d="M176.5 49.5V53.25C176.5 55.325 174.825 57 172.75 57H171.5C171.5 55.625 170.375 54.5 169 54.5C167.625 54.5 166.5 55.625 166.5 57H161.5C161.5 55.625 160.375 54.5 159 54.5C157.625 54.5 156.5 55.625 156.5 57H155.25C153.175 57 151.5 55.325 151.5 53.25V49.5H165.25C166.625 49.5 167.75 48.375 167.75 47V38.25H170.05C170.95 38.25 171.775 38.7375 172.225 39.5125L174.362 43.25H172.75C172.062 43.25 171.5 43.8125 171.5 44.5V48.25C171.5 48.9375 172.062 49.5 172.75 49.5H176.5Z" fill="#2E2836"/>
<path d="M159 59.5C160.381 59.5 161.5 58.3807 161.5 57C161.5 55.6193 160.381 54.5 159 54.5C157.619 54.5 156.5 55.6193 156.5 57C156.5 58.3807 157.619 59.5 159 59.5Z" fill="#2E2836"/>
<path d="M169 59.5C170.381 59.5 171.5 58.3807 171.5 57C171.5 55.6193 170.381 54.5 169 54.5C167.619 54.5 166.5 55.6193 166.5 57C166.5 58.3807 167.619 59.5 169 59.5Z" fill="#2E2836"/>
<path d="M176.5 47.6625V49.5H172.75C172.062 49.5 171.5 48.9375 171.5 48.25V44.5C171.5 43.8125 172.062 43.25 172.75 43.25H174.362L176.175 46.425C176.387 46.8 176.5 47.225 176.5 47.6625Z" fill="#2E2836"/>
<path d="M166.5 34.5H156.5C154.062 34.5 152.038 36.25 151.6 38.5625H157.75C158.262 38.5625 158.688 38.9875 158.688 39.5C158.688 40.0125 158.262 40.4375 157.75 40.4375H151.5V42.3125H155.25C155.762 42.3125 156.188 42.7375 156.188 43.25C156.188 43.7625 155.762 44.1875 155.25 44.1875H151.5V46.0625H152.75C153.263 46.0625 153.688 46.4875 153.688 47C153.688 47.5125 153.263 47.9375 152.75 47.9375H151.5V49.5H165.25C166.625 49.5 167.75 48.375 167.75 47V35.75C167.75 35.0625 167.188 34.5 166.5 34.5Z" fill="#2E2836"/>
<path d="M151.6 38.5625H150.25C149.738 38.5625 149.312 38.9875 149.312 39.5C149.312 40.0125 149.738 40.4375 150.25 40.4375H151.5V39.5C151.5 39.175 151.538 38.8625 151.6 38.5625Z" fill="#2E2836"/>
<path d="M150.25 42.3125C149.738 42.3125 149.312 42.7375 149.312 43.25C149.312 43.7625 149.738 44.1875 150.25 44.1875H151.5V42.3125H150.25Z" fill="#2E2836"/>
<path d="M150.25 46.0625C149.738 46.0625 149.312 46.4875 149.312 47C149.312 47.5125 149.738 47.9375 150.25 47.9375H151.5V46.0625H150.25Z" fill="#2E2836"/>
<circle cx="200" cy="47" r="1.5" fill="#2E2836"/>
<circle cx="222.5" cy="47" r="1.5" fill="#2E2836"/>
<path d="M246.5 47C246.5 47.8284 245.828 48.5 245 48.5C244.172 48.5 243.5 47.8284 243.5 47C243.5 46.1716 244.172 45.5 245 45.5C245.828 45.5 246.5 46.1716 246.5 47Z" fill="#2E2836"/>
<path opacity="0.4" d="M281 47C284.452 47 287.25 44.2018 287.25 40.75C287.25 37.2982 284.452 34.5 281 34.5C277.548 34.5 274.75 37.2982 274.75 40.75C274.75 44.2018 277.548 47 281 47Z" fill="#FF1971"/>
<path d="M281 50.125C274.737 50.125 269.637 54.325 269.637 59.5C269.637 59.85 269.912 60.125 270.262 60.125H291.737C292.087 60.125 292.362 59.85 292.362 59.5C292.362 54.325 287.262 50.125 281 50.125Z" fill="#FF1971"/>
</svg>
