<svg width="100" height="100" viewBox="0 0 100 100" fill="none" xmlns="http://www.w3.org/2000/svg">
<rect width="100" height="100" rx="5" fill="#FFECD1"/>
<path d="M53 60.75H47C41.57 60.75 39.25 58.43 39.25 53V47C39.25 41.57 41.57 39.25 47 39.25H53C58.43 39.25 60.75 41.57 60.75 47V53C60.75 58.43 58.43 60.75 53 60.75ZM47 40.75C42.39 40.75 40.75 42.39 40.75 47V53C40.75 57.61 42.39 59.25 47 59.25H53C57.61 59.25 59.25 57.61 59.25 53V47C59.25 42.39 57.61 40.75 53 40.75H47Z" fill="#292D32"/>
<path d="M47 48.75C45.48 48.75 44.25 47.52 44.25 46C44.25 44.48 45.48 43.25 47 43.25C48.52 43.25 49.75 44.48 49.75 46C49.75 47.52 48.52 48.75 47 48.75ZM47 44.75C46.31 44.75 45.75 45.31 45.75 46C45.75 46.69 46.31 47.25 47 47.25C47.69 47.25 48.25 46.69 48.25 46C48.25 45.31 47.69 44.75 47 44.75Z" fill="#292D32"/>
<path d="M40.6698 57.7001C40.4298 57.7001 40.1898 57.5801 40.0498 57.3701C39.8198 57.0301 39.9098 56.5601 40.2598 56.3301L45.1898 53.0201C46.2698 52.2901 47.7598 52.3801 48.7398 53.2101L49.0698 53.5001C49.5698 53.9301 50.4198 53.9301 50.9098 53.5001L55.0698 49.9301C56.1298 49.0201 57.7998 49.0201 58.8698 49.9301L60.4998 51.3301C60.8098 51.6001 60.8498 52.0701 60.5798 52.3901C60.3098 52.7001 59.8398 52.7401 59.5198 52.4701L57.8898 51.0701C57.3898 50.6401 56.5398 50.6401 56.0398 51.0701L51.8798 54.6401C50.8198 55.5501 49.1498 55.5501 48.0798 54.6401L47.7498 54.3501C47.2898 53.9601 46.5298 53.9201 46.0198 54.2701L41.0898 57.5801C40.9598 57.6601 40.8098 57.7001 40.6698 57.7001Z" fill="#292D32"/>
</svg>
