<svg width="72" height="72" viewBox="0 0 72 72" fill="none" xmlns="http://www.w3.org/2000/svg">
<rect width="72" height="72" rx="36" fill="#FFB900"/>
<path d="M14.7935 38.112C14.7508 38.2507 14.7295 38.3893 14.7295 38.528C14.7295 38.6453 14.7455 38.7467 14.7775 38.832C14.8095 38.9067 14.8415 38.9707 14.8735 39.024C14.9162 39.0667 14.9428 39.0987 14.9535 39.12C15.0602 39.2267 15.1135 39.3333 15.1135 39.44C15.1135 39.4613 15.1028 39.5147 15.0815 39.6C15.0388 39.7493 14.9428 39.856 14.7935 39.92C14.6548 39.9733 14.4362 40 14.1375 40H10.3455C10.1215 40 9.9455 39.9627 9.8175 39.888C9.70017 39.8133 9.6415 39.712 9.6415 39.584C9.6415 39.52 9.6575 39.4507 9.6895 39.376C9.7215 39.2907 9.76417 39.2267 9.8175 39.184C9.8815 39.1307 9.96683 39.072 10.0735 39.008C10.2442 38.912 10.3828 38.8053 10.4895 38.688C10.5962 38.5707 10.6868 38.3787 10.7615 38.112L11.1775 36.736H8.6815L8.2495 37.648C8.06817 38.0427 7.9775 38.352 7.9775 38.576C7.9775 38.704 7.99883 38.8107 8.0415 38.896C8.08417 38.9707 8.14817 39.0507 8.2335 39.136C8.30817 39.2213 8.35617 39.296 8.3775 39.36C8.4095 39.4133 8.41483 39.488 8.3935 39.584C8.35083 39.744 8.26017 39.856 8.1215 39.92C7.9935 39.9733 7.7855 40 7.4975 40H5.1135C4.86817 40 4.6815 39.9573 4.5535 39.872C4.4255 39.776 4.3615 39.6533 4.3615 39.504C4.3615 39.3333 4.4255 39.2 4.5535 39.104C4.67083 38.9973 4.85217 38.8853 5.0975 38.768C5.4175 38.608 5.6735 38.4533 5.8655 38.304C6.0575 38.144 6.22283 37.9253 6.3615 37.648L9.2095 31.744C9.64683 30.8267 10.1588 30.1653 10.7455 29.76C11.3428 29.344 12.1268 29.136 13.0975 29.136C14.1855 29.136 15.0282 29.36 15.6255 29.808C16.2228 30.2453 16.5215 30.8587 16.5215 31.648C16.5215 31.9787 16.4682 32.32 16.3615 32.672L14.7935 38.112ZM11.6575 35.136L12.5055 32.32C12.5482 32.192 12.5695 32.0587 12.5695 31.92C12.5695 31.7173 12.5108 31.568 12.3935 31.472C12.2868 31.3653 12.1322 31.312 11.9295 31.312C11.6735 31.312 11.4548 31.3867 11.2735 31.536C11.0922 31.6853 10.9108 31.952 10.7295 32.336L9.4175 35.136H11.6575ZM28.7051 29.28C29.1531 29.28 29.5265 29.424 29.8251 29.712C30.1238 30 30.2731 30.3893 30.2731 30.88C30.2731 31.4347 30.1078 31.8827 29.7771 32.224C29.4465 32.5653 29.0518 32.736 28.5931 32.736C28.2945 32.736 28.0385 32.6827 27.8251 32.576C27.6118 32.4693 27.4091 32.2987 27.2171 32.064L25.8411 33.216L27.3931 37.808C27.4891 38.0747 27.5905 38.288 27.6971 38.448C27.8145 38.608 27.9531 38.768 28.1131 38.928C28.2305 39.0453 28.3105 39.1413 28.3531 39.216C28.4065 39.28 28.4331 39.36 28.4331 39.456C28.4331 39.6267 28.3531 39.76 28.1931 39.856C28.0438 39.952 27.7771 40 27.3931 40H25.2971C24.7745 40 24.3851 39.888 24.1291 39.664C23.8838 39.4293 23.6811 39.0453 23.5211 38.512L22.7211 35.824L22.2571 36.208L21.7291 38.112C21.6865 38.2507 21.6651 38.384 21.6651 38.512C21.6651 38.64 21.6811 38.7467 21.7131 38.832C21.7558 38.9173 21.8145 39.008 21.8891 39.104C21.9851 39.2427 22.0331 39.3547 22.0331 39.44C22.0331 39.4613 22.0225 39.5147 22.0011 39.6C21.9585 39.7493 21.8625 39.856 21.7131 39.92C21.5638 39.9733 21.3398 40 21.0411 40H17.2811C17.0571 40 16.8865 39.9627 16.7691 39.888C16.6411 39.8133 16.5771 39.712 16.5771 39.584C16.5771 39.52 16.5931 39.4507 16.6251 39.376C16.6678 39.2587 16.7371 39.168 16.8331 39.104C16.9291 39.04 16.9878 39.0027 17.0091 38.992C17.1798 38.8853 17.3185 38.7787 17.4251 38.672C17.5318 38.5547 17.6225 38.368 17.6971 38.112L19.6491 31.216C19.6918 31.0773 19.7131 30.944 19.7131 30.816C19.7131 30.6987 19.6918 30.6027 19.6491 30.528C19.6171 30.4427 19.5691 30.3467 19.5051 30.24C19.4091 30.1013 19.3611 29.9893 19.3611 29.904C19.3611 29.872 19.3718 29.8133 19.3931 29.728C19.4358 29.5893 19.5265 29.4933 19.6651 29.44C19.8145 29.376 20.0385 29.344 20.3371 29.344H24.0971C24.3211 29.344 24.4918 29.3813 24.6091 29.456C24.7371 29.52 24.8011 29.616 24.8011 29.744C24.8011 29.7973 24.7851 29.8667 24.7531 29.952C24.7211 30.0267 24.6731 30.096 24.6091 30.16C24.5558 30.2133 24.5025 30.256 24.4491 30.288C24.4065 30.3093 24.3745 30.3307 24.3531 30.352C24.1825 30.448 24.0438 30.5547 23.9371 30.672C23.8305 30.7893 23.7398 30.9707 23.6651 31.216L22.9931 33.6L27.2331 29.936C27.5105 29.7013 27.7611 29.536 27.9851 29.44C28.2091 29.3333 28.4491 29.28 28.7051 29.28ZM39.5586 35.872C39.8573 35.872 40.0813 35.936 40.2306 36.064C40.3906 36.1813 40.4706 36.352 40.4706 36.576C40.4706 36.672 40.4546 36.7787 40.4226 36.896L39.8946 38.768C39.756 39.2267 39.5586 39.5467 39.3026 39.728C39.0573 39.9093 38.6893 40 38.1986 40H30.6786C30.4546 40 30.284 39.9627 30.1666 39.888C30.0386 39.8133 29.9746 39.712 29.9746 39.584C29.9746 39.52 29.9906 39.4507 30.0226 39.376C30.0546 39.2907 30.108 39.2213 30.1826 39.168C30.2573 39.104 30.3373 39.0453 30.4226 38.992C30.5933 38.8853 30.732 38.7787 30.8386 38.672C30.9453 38.5547 31.036 38.368 31.1106 38.112L33.0626 31.216C33.1053 31.0773 33.1266 30.944 33.1266 30.816C33.1266 30.6987 33.1053 30.6027 33.0626 30.528C33.0306 30.4427 32.9826 30.3467 32.9186 30.24C32.8226 30.1013 32.7746 29.9893 32.7746 29.904C32.7746 29.872 32.7853 29.8133 32.8066 29.728C32.8493 29.5893 32.94 29.4933 33.0786 29.44C33.228 29.376 33.452 29.344 33.7506 29.344H37.5106C37.7346 29.344 37.9053 29.3813 38.0226 29.456C38.1506 29.52 38.2146 29.616 38.2146 29.744C38.2146 29.7973 38.1986 29.8667 38.1666 29.952C38.1346 30.0267 38.0866 30.096 38.0226 30.16C37.9693 30.2133 37.916 30.256 37.8626 30.288C37.82 30.3093 37.788 30.3307 37.7666 30.352C37.596 30.448 37.4573 30.5547 37.3506 30.672C37.244 30.7893 37.1533 30.9707 37.0786 31.216L35.0146 38.464H36.0066C36.252 38.464 36.46 38.4213 36.6306 38.336C36.812 38.2507 36.9986 38.0907 37.1906 37.856L38.2946 36.544C38.4973 36.3093 38.6893 36.1387 38.8706 36.032C39.0626 35.9253 39.292 35.872 39.5586 35.872ZM54.2365 29.344C54.6738 29.344 54.8925 29.4827 54.8925 29.76C54.8925 29.8347 54.8872 29.888 54.8765 29.92C54.8445 30.0267 54.7965 30.112 54.7325 30.176C54.6685 30.2293 54.5778 30.2933 54.4605 30.368C54.3005 30.464 54.1672 30.5707 54.0605 30.688C53.9538 30.8053 53.8632 30.9867 53.7885 31.232L51.8045 38.336C51.6232 38.976 51.3938 39.424 51.1165 39.68C50.8498 39.936 50.4765 40.064 49.9965 40.064C49.5698 40.064 49.2125 39.9413 48.9245 39.696C48.6472 39.44 48.3858 39.0507 48.1405 38.528L45.7245 33.44L44.3805 38.112C44.3485 38.2507 44.3325 38.3733 44.3325 38.48C44.3325 38.6187 44.3538 38.736 44.3965 38.832C44.4498 38.9173 44.5192 39.008 44.6045 39.104C44.7218 39.2427 44.7805 39.36 44.7805 39.456C44.7805 39.52 44.7752 39.568 44.7645 39.6C44.7218 39.7493 44.6258 39.856 44.4765 39.92C44.3272 39.9733 44.1032 40 43.8045 40H42.0605C41.6232 40 41.4045 39.8613 41.4045 39.584C41.4045 39.5093 41.4098 39.456 41.4205 39.424C41.4525 39.3173 41.5005 39.2373 41.5645 39.184C41.6285 39.12 41.7192 39.0507 41.8365 38.976C41.9965 38.88 42.1298 38.7733 42.2365 38.656C42.3432 38.5387 42.4338 38.3573 42.5085 38.112L44.5405 30.928L44.2845 30.4C44.1778 30.1867 44.1245 30 44.1245 29.84C44.1245 29.5093 44.3378 29.344 44.7645 29.344H47.1325C47.4738 29.344 47.7298 29.424 47.9005 29.584C48.0818 29.7333 48.2738 30.0053 48.4765 30.4L50.8125 35.088L51.9165 31.232C51.9485 31.0827 51.9645 30.96 51.9645 30.864C51.9645 30.7253 51.9378 30.6133 51.8845 30.528C51.8418 30.432 51.7778 30.336 51.6925 30.24C51.5752 30.1013 51.5165 29.984 51.5165 29.888C51.5165 29.824 51.5218 29.776 51.5325 29.744C51.5752 29.5947 51.6712 29.4933 51.8205 29.44C51.9698 29.376 52.1938 29.344 52.4925 29.344H54.2365ZM67.1255 29.28C67.5948 29.28 67.9788 29.4347 68.2775 29.744C68.5762 30.0427 68.7255 30.4267 68.7255 30.896C68.7255 30.96 68.7148 31.0773 68.6935 31.248C68.6082 31.76 68.4055 32.1387 68.0855 32.384C67.7762 32.6293 67.4135 32.752 66.9975 32.752C66.7202 32.752 66.4855 32.7093 66.2935 32.624C66.1015 32.5387 65.9202 32.3947 65.7495 32.192L63.1095 35.632L62.3735 38.112C62.3522 38.176 62.3415 38.2613 62.3415 38.368C62.3415 38.5173 62.3788 38.6453 62.4535 38.752C62.5282 38.848 62.6348 38.9547 62.7735 39.072C62.8908 39.1787 62.9762 39.2693 63.0295 39.344C63.0828 39.4187 63.0935 39.504 63.0615 39.6C63.0188 39.7493 62.9122 39.856 62.7415 39.92C62.5815 39.9733 62.3575 40 62.0695 40H58.0375C57.7602 40 57.5522 39.952 57.4135 39.856C57.2855 39.7493 57.2428 39.6053 57.2855 39.424C57.3068 39.328 57.3442 39.2533 57.3975 39.2C57.4615 39.136 57.5575 39.0613 57.6855 38.976C57.8455 38.88 57.9788 38.7733 58.0855 38.656C58.1922 38.528 58.2828 38.3467 58.3575 38.112L59.0935 35.616L57.6215 31.424C57.5148 31.1147 57.3868 30.88 57.2375 30.72C57.0988 30.5493 56.9335 30.384 56.7415 30.224C56.6242 30.1387 56.5388 30.064 56.4855 30C56.4322 29.936 56.4055 29.8613 56.4055 29.776C56.4055 29.648 56.4588 29.5467 56.5655 29.472C56.6828 29.3867 56.8482 29.344 57.0615 29.344H61.3335C61.7068 29.344 61.9628 29.376 62.1015 29.44C62.2402 29.504 62.3148 29.616 62.3255 29.776C62.3255 29.872 62.3042 29.9573 62.2615 30.032C62.2188 30.096 62.1548 30.176 62.0695 30.272C61.9735 30.4 61.8988 30.5067 61.8455 30.592C61.8028 30.6667 61.7815 30.7627 61.7815 30.88C61.7815 30.912 61.7922 30.9813 61.8135 31.088L62.5495 33.904L64.5815 31.008C65.0188 30.3893 65.4295 29.9467 65.8135 29.68C66.2082 29.4133 66.6455 29.28 67.1255 29.28Z" fill="#FF1971"/>
</svg>
