<svg width="72" height="72" viewBox="0 0 72 72" fill="none" xmlns="http://www.w3.org/2000/svg">
<rect width="72" height="72" rx="36" fill="#FFB900"/>
<path d="M23.3102 40.05C23.2435 40.2667 23.2102 40.4833 23.2102 40.7C23.2102 40.8833 23.2352 41.0417 23.2852 41.175C23.3352 41.2917 23.3852 41.3917 23.4352 41.475C23.5018 41.5417 23.5435 41.5917 23.5602 41.625C23.7268 41.7917 23.8102 41.9583 23.8102 42.125C23.8102 42.1583 23.7935 42.2417 23.7602 42.375C23.6935 42.6083 23.5435 42.775 23.3102 42.875C23.0935 42.9583 22.7518 43 22.2852 43H16.3602C16.0102 43 15.7352 42.9417 15.5352 42.825C15.3518 42.7083 15.2602 42.55 15.2602 42.35C15.2602 42.25 15.2852 42.1417 15.3352 42.025C15.3852 41.8917 15.4518 41.7917 15.5352 41.725C15.6352 41.6417 15.7685 41.55 15.9352 41.45C16.2018 41.3 16.4185 41.1333 16.5852 40.95C16.7518 40.7667 16.8935 40.4667 17.0102 40.05L17.6602 37.9H13.7602L13.0852 39.325C12.8018 39.9417 12.6602 40.425 12.6602 40.775C12.6602 40.975 12.6935 41.1417 12.7602 41.275C12.8268 41.3917 12.9268 41.5167 13.0602 41.65C13.1768 41.7833 13.2518 41.9 13.2852 42C13.3352 42.0833 13.3435 42.2 13.3102 42.35C13.2435 42.6 13.1018 42.775 12.8852 42.875C12.6852 42.9583 12.3602 43 11.9102 43H8.18516C7.80182 43 7.51016 42.9333 7.31016 42.8C7.11016 42.65 7.01016 42.4583 7.01016 42.225C7.01016 41.9583 7.11016 41.75 7.31016 41.6C7.49349 41.4333 7.77682 41.2583 8.16016 41.075C8.66016 40.825 9.06016 40.5833 9.36016 40.35C9.66016 40.1 9.91849 39.7583 10.1352 39.325L14.5852 30.1C15.2685 28.6667 16.0685 27.6333 16.9852 27C17.9185 26.35 19.1435 26.025 20.6602 26.025C22.3602 26.025 23.6768 26.375 24.6102 27.075C25.5435 27.7583 26.0102 28.7167 26.0102 29.95C26.0102 30.4667 25.9268 31 25.7602 31.55L23.3102 40.05ZM18.4102 35.4L19.7352 31C19.8018 30.8 19.8352 30.5917 19.8352 30.375C19.8352 30.0583 19.7435 29.825 19.5602 29.675C19.3935 29.5083 19.1518 29.425 18.8352 29.425C18.4352 29.425 18.0935 29.5417 17.8102 29.775C17.5268 30.0083 17.2435 30.425 16.9602 31.025L14.9102 35.4H18.4102ZM45.0471 26.25C45.7471 26.25 46.3304 26.475 46.7971 26.925C47.2637 27.375 47.4971 27.9833 47.4971 28.75C47.4971 29.6167 47.2387 30.3167 46.7221 30.85C46.2054 31.3833 45.5887 31.65 44.8721 31.65C44.4054 31.65 44.0054 31.5667 43.6721 31.4C43.3387 31.2333 43.0221 30.9667 42.7221 30.6L40.5721 32.4L42.9971 39.575C43.1471 39.9917 43.3054 40.325 43.4721 40.575C43.6554 40.825 43.8721 41.075 44.1221 41.325C44.3054 41.5083 44.4304 41.6583 44.4971 41.775C44.5804 41.875 44.6221 42 44.6221 42.15C44.6221 42.4167 44.4971 42.625 44.2471 42.775C44.0137 42.925 43.5971 43 42.9971 43H39.7221C38.9054 43 38.2971 42.825 37.8971 42.475C37.5137 42.1083 37.1971 41.5083 36.9471 40.675L35.6971 36.475L34.9721 37.075L34.1471 40.05C34.0804 40.2667 34.0471 40.475 34.0471 40.675C34.0471 40.875 34.0721 41.0417 34.1221 41.175C34.1887 41.3083 34.2804 41.45 34.3971 41.6C34.5471 41.8167 34.6221 41.9917 34.6221 42.125C34.6221 42.1583 34.6054 42.2417 34.5721 42.375C34.5054 42.6083 34.3554 42.775 34.1221 42.875C33.8887 42.9583 33.5387 43 33.0721 43H27.1971C26.8471 43 26.5804 42.9417 26.3971 42.825C26.1971 42.7083 26.0971 42.55 26.0971 42.35C26.0971 42.25 26.1221 42.1417 26.1721 42.025C26.2387 41.8417 26.3471 41.7 26.4971 41.6C26.6471 41.5 26.7387 41.4417 26.7721 41.425C27.0387 41.2583 27.2554 41.0917 27.4221 40.925C27.5887 40.7417 27.7304 40.45 27.8471 40.05L30.8971 29.275C30.9637 29.0583 30.9971 28.85 30.9971 28.65C30.9971 28.4667 30.9637 28.3167 30.8971 28.2C30.8471 28.0667 30.7721 27.9167 30.6721 27.75C30.5221 27.5333 30.4471 27.3583 30.4471 27.225C30.4471 27.175 30.4637 27.0833 30.4971 26.95C30.5637 26.7333 30.7054 26.5833 30.9221 26.5C31.1554 26.4 31.5054 26.35 31.9721 26.35H37.8471C38.1971 26.35 38.4637 26.4083 38.6471 26.525C38.8471 26.625 38.9471 26.775 38.9471 26.975C38.9471 27.0583 38.9221 27.1667 38.8721 27.3C38.8221 27.4167 38.7471 27.525 38.6471 27.625C38.5637 27.7083 38.4804 27.775 38.3971 27.825C38.3304 27.8583 38.2804 27.8917 38.2471 27.925C37.9804 28.075 37.7637 28.2417 37.5971 28.425C37.4304 28.6083 37.2887 28.8917 37.1721 29.275L36.1221 33L42.7471 27.275C43.1804 26.9083 43.5721 26.65 43.9221 26.5C44.2721 26.3333 44.6471 26.25 45.0471 26.25ZM62.0057 36.55C62.4723 36.55 62.8223 36.65 63.0557 36.85C63.3057 37.0333 63.4307 37.3 63.4307 37.65C63.4307 37.8 63.4057 37.9667 63.3557 38.15L62.5307 41.075C62.314 41.7917 62.0057 42.2917 61.6057 42.575C61.2223 42.8583 60.6473 43 59.8807 43H48.1307C47.7807 43 47.514 42.9417 47.3307 42.825C47.1307 42.7083 47.0307 42.55 47.0307 42.35C47.0307 42.25 47.0557 42.1417 47.1057 42.025C47.1557 41.8917 47.239 41.7833 47.3557 41.7C47.4723 41.6 47.5973 41.5083 47.7307 41.425C47.9973 41.2583 48.214 41.0917 48.3807 40.925C48.5473 40.7417 48.689 40.45 48.8057 40.05L51.8557 29.275C51.9223 29.0583 51.9557 28.85 51.9557 28.65C51.9557 28.4667 51.9223 28.3167 51.8557 28.2C51.8057 28.0667 51.7307 27.9167 51.6307 27.75C51.4807 27.5333 51.4057 27.3583 51.4057 27.225C51.4057 27.175 51.4223 27.0833 51.4557 26.95C51.5223 26.7333 51.664 26.5833 51.8807 26.5C52.114 26.4 52.464 26.35 52.9307 26.35H58.8057C59.1557 26.35 59.4223 26.4083 59.6057 26.525C59.8057 26.625 59.9057 26.775 59.9057 26.975C59.9057 27.0583 59.8807 27.1667 59.8307 27.3C59.7807 27.4167 59.7057 27.525 59.6057 27.625C59.5223 27.7083 59.439 27.775 59.3557 27.825C59.289 27.8583 59.239 27.8917 59.2057 27.925C58.939 28.075 58.7223 28.2417 58.5557 28.425C58.389 28.6083 58.2473 28.8917 58.1307 29.275L54.9057 40.6H56.4557C56.839 40.6 57.164 40.5333 57.4307 40.4C57.714 40.2667 58.0057 40.0167 58.3057 39.65L60.0307 37.6C60.3473 37.2333 60.6473 36.9667 60.9307 36.8C61.2307 36.6333 61.589 36.55 62.0057 36.55Z" fill="#FF1971"/>
</svg>
