<svg width="18" height="18" viewBox="0 0 18 18" fill="none" xmlns="http://www.w3.org/2000/svg">
<path opacity="0.4" d="M15.7805 5.3925L9.00046 9.315L2.22046 5.3925C2.52046 4.8375 2.95546 4.35 3.44296 4.08L7.44796 1.86C8.30296 1.38 9.69796 1.38 10.553 1.86L14.558 4.08C15.0455 4.35 15.4805 4.8375 15.7805 5.3925Z" fill="#FF1971"/>
<path opacity="0.6" d="M9.00047 9.31508V16.5001C8.43797 16.5001 7.87547 16.3801 7.44797 16.1401L3.44297 13.9201C2.53547 13.4176 1.79297 12.1576 1.79297 11.1226V6.87758C1.79297 6.39758 1.95797 5.87258 2.22047 5.39258L9.00047 9.31508Z" fill="#FF1971"/>
<path d="M16.208 6.87758V11.1226C16.208 12.1576 15.4655 13.4176 14.558 13.9201L10.553 16.1401C10.1255 16.3801 9.56299 16.5001 9.00049 16.5001V9.31508L15.7805 5.39258C16.043 5.87258 16.208 6.39758 16.208 6.87758Z" fill="#FF1971"/>
</svg>
