<svg width="21" height="21" viewBox="0 0 21 21" fill="none" xmlns="http://www.w3.org/2000/svg">
<path opacity="0.4" d="M10.3162 12.4338L7.455 15.295C7.14 15.015 6.83375 14.7263 6.53625 14.4288C5.635 13.5188 4.82125 12.565 4.095 11.5675C3.3775 10.57 2.8 9.5725 2.38 8.58375C1.96 7.58625 1.75 6.6325 1.75 5.7225C1.75 5.1275 1.855 4.55875 2.065 4.03375C2.275 3.5 2.6075 3.01 3.07125 2.5725C3.63125 2.02125 4.24375 1.75 4.89125 1.75C5.13625 1.75 5.38125 1.8025 5.6 1.9075C5.8275 2.0125 6.02875 2.17 6.18625 2.3975L8.21625 5.25875C8.37375 5.4775 8.4875 5.67875 8.56625 5.87125C8.645 6.055 8.68875 6.23875 8.68875 6.405C8.68875 6.615 8.6275 6.825 8.505 7.02625C8.39125 7.2275 8.225 7.4375 8.015 7.6475L7.35 8.33875C7.25375 8.435 7.21 8.54875 7.21 8.68875C7.21 8.75875 7.21875 8.82 7.23625 8.89C7.2625 8.96 7.28875 9.0125 7.30625 9.065C7.46375 9.35375 7.735 9.73 8.12 10.185C8.51375 10.64 8.93375 11.1038 9.38875 11.5675C9.70375 11.8738 10.01 12.1713 10.3162 12.4338Z" fill="#2E2836"/>
<path d="M19.2238 16.0387C19.2238 16.2837 19.18 16.5374 19.0925 16.7824C19.0663 16.8524 19.04 16.9224 19.005 16.9924C18.8563 17.3074 18.6638 17.6049 18.41 17.8849C17.9813 18.3574 17.5088 18.6987 16.975 18.9174C16.9663 18.9174 16.9575 18.9262 16.9488 18.9262C16.4325 19.1362 15.8725 19.2499 15.2688 19.2499C14.3763 19.2499 13.4225 19.0399 12.4163 18.6112C11.41 18.1824 10.4038 17.6049 9.40627 16.8787C9.06502 16.6249 8.72377 16.3712 8.40002 16.0999L11.2613 13.2387C11.5063 13.4224 11.725 13.5624 11.9088 13.6587C11.9525 13.6762 12.005 13.7024 12.0663 13.7287C12.1363 13.7549 12.2063 13.7637 12.285 13.7637C12.4338 13.7637 12.5475 13.7112 12.6438 13.6149L13.3088 12.9587C13.5275 12.7399 13.7375 12.5737 13.9388 12.4687C14.14 12.3462 14.3413 12.2849 14.56 12.2849C14.7263 12.2849 14.9013 12.3199 15.0938 12.3987C15.2863 12.4774 15.4875 12.5912 15.7063 12.7399L18.6025 14.7962C18.83 14.9537 18.9875 15.1374 19.0838 15.3562C19.1713 15.5749 19.2238 15.7937 19.2238 16.0387Z" fill="#2E2836"/>
</svg>
