<svg width="18" height="18" viewBox="0 0 18 18" fill="none" xmlns="http://www.w3.org/2000/svg">
<path opacity="0.4" d="M4.05744 1.5H13.9349C14.7599 1.5 15.4349 2.18249 15.4349 3.01499V4.67999C15.4349 5.28749 15.0599 6.045 14.6849 6.42L11.4674 9.29999C11.0174 9.68249 10.7174 10.44 10.7174 11.04V14.295C10.7174 14.7525 10.4174 15.3525 10.0424 15.585L8.99994 16.275C8.02494 16.8825 6.68244 16.2 6.68244 14.985V10.9725C6.68244 10.44 6.38244 9.75751 6.08244 9.38251L3.23994 6.3525C2.86494 5.97 2.56494 5.29501 2.56494 4.83751V3.0975C2.56494 2.1825 3.23994 1.5 4.05744 1.5Z" fill="#A2CF96"/>
<path d="M12.66 7.5C10.695 7.5 9.09753 9.0975 9.09753 11.0625C9.09753 11.73 9.28503 12.36 9.61503 12.9C10.23 13.935 11.3625 14.625 12.66 14.625C13.9575 14.625 15.09 13.9275 15.705 12.9C16.035 12.3675 16.2225 11.73 16.2225 11.0625C16.2225 9.0975 14.6325 7.5 12.66 7.5ZM13.995 11.61H13.2225V12.4125C13.2225 12.72 12.9675 12.975 12.66 12.975C12.3525 12.975 12.0975 12.72 12.0975 12.4125V11.61H11.3325C11.025 11.61 10.77 11.355 10.77 11.0475C10.77 10.74 11.025 10.485 11.3325 10.485H12.0975V9.75C12.0975 9.4425 12.3525 9.1875 12.66 9.1875C12.9675 9.1875 13.2225 9.4425 13.2225 9.75V10.485H13.995C14.3025 10.485 14.5575 10.74 14.5575 11.0475C14.5575 11.355 14.3025 11.61 13.995 11.61Z" fill="#A2CF96"/>
</svg>
