<svg width="21" height="21" viewBox="0 0 21 21" fill="none" xmlns="http://www.w3.org/2000/svg">
<path opacity="0.4" d="M18.5938 8.00622C16.5725 4.82997 13.615 3.00122 10.5 3.00122C8.9425 3.00122 7.42875 3.45622 6.04625 4.30497C4.66375 5.16247 3.42125 6.41372 2.40625 8.00622C1.53125 9.37997 1.53125 11.6112 2.40625 12.985C4.4275 16.17 7.385 17.99 10.5 17.99C12.0575 17.99 13.5713 17.535 14.9538 16.6862C16.3363 15.8287 17.5788 14.5775 18.5938 12.985C19.4688 11.62 19.4688 9.37997 18.5938 8.00622ZM10.5 14.035C8.54 14.035 6.965 12.4512 6.965 10.5C6.965 8.54872 8.54 6.96497 10.5 6.96497C12.46 6.96497 14.035 8.54872 14.035 10.5C14.035 12.4512 12.46 14.035 10.5 14.035Z" fill="#2E2836"/>
<path d="M10.5 7.99756C9.12623 7.99756 8.00623 9.11756 8.00623 10.5001C8.00623 11.8738 9.12623 12.9938 10.5 12.9938C11.8737 12.9938 13.0025 11.8738 13.0025 10.5001C13.0025 9.12631 11.8737 7.99756 10.5 7.99756Z" fill="#2E2836"/>
</svg>
