<svg width="12" height="12" viewBox="0 0 12 12" fill="none" xmlns="http://www.w3.org/2000/svg">
<path opacity="0.4" d="M11 7V8.5C11 9.33 10.33 10 9.5 10H9C9 9.45 8.55 9 8 9C7.45 9 7 9.45 7 10H5C5 9.45 4.55 9 4 9C3.45 9 3 9.45 3 10H2.5C1.67 10 1 9.33 1 8.5V7H6.5C7.05 7 7.5 6.55 7.5 6V2.5H8.42001C8.78001 2.5 9.11001 2.695 9.29001 3.005L10.145 4.5H9.5C9.225 4.5 9 4.725 9 5V6.5C9 6.775 9.225 7 9.5 7H11Z" fill="#FF1971"/>
<path d="M4 11C4.55228 11 5 10.5523 5 10C5 9.44772 4.55228 9 4 9C3.44772 9 3 9.44772 3 10C3 10.5523 3.44772 11 4 11Z" fill="#FF1971"/>
<path d="M8 11C8.55228 11 9 10.5523 9 10C9 9.44772 8.55228 9 8 9C7.44772 9 7 9.44772 7 10C7 10.5523 7.44772 11 8 11Z" fill="#FF1971"/>
<path d="M11 6.26501V7H9.5C9.225 7 9 6.775 9 6.5V5C9 4.725 9.225 4.5 9.5 4.5H10.145L10.87 5.76999C10.955 5.91999 11 6.09001 11 6.26501Z" fill="#FF1971"/>
<path d="M7 1H3C2.025 1 1.21501 1.7 1.04001 2.625H3.5C3.705 2.625 3.875 2.795 3.875 3C3.875 3.205 3.705 3.375 3.5 3.375H1V4.125H2.5C2.705 4.125 2.875 4.295 2.875 4.5C2.875 4.705 2.705 4.875 2.5 4.875H1V5.625H1.5C1.705 5.625 1.875 5.795 1.875 6C1.875 6.205 1.705 6.375 1.5 6.375H1V7H6.5C7.05 7 7.5 6.55 7.5 6V1.5C7.5 1.225 7.275 1 7 1Z" fill="#FF1971"/>
<path d="M1.04001 2.625H0.5C0.295 2.625 0.125 2.795 0.125 3C0.125 3.205 0.295 3.375 0.5 3.375H1V3C1 2.87 1.01501 2.745 1.04001 2.625Z" fill="#FF1971"/>
<path d="M0.5 4.125C0.295 4.125 0.125 4.295 0.125 4.5C0.125 4.705 0.295 4.875 0.5 4.875H1V4.125H0.5Z" fill="#FF1971"/>
<path d="M0.5 5.625C0.295 5.625 0.125 5.795 0.125 6C0.125 6.205 0.295 6.375 0.5 6.375H1V5.625H0.5Z" fill="#FF1971"/>
</svg>
