<svg width="21" height="21" viewBox="0 0 21 21" fill="none" xmlns="http://www.w3.org/2000/svg">
<path opacity="0.4" d="M17.3162 3.69253C14.7262 1.11128 10.5262 1.11128 7.95369 3.69253C6.14244 5.48628 5.59994 8.06753 6.29994 10.3425L2.18744 14.455C1.89869 14.7525 1.69744 15.3388 1.75869 15.7588L2.02119 17.6663C2.11744 18.2963 2.70369 18.8913 3.33369 18.9788L5.24119 19.2413C5.66119 19.3025 6.24744 19.11 6.54494 18.8038L7.26244 18.0863C7.43744 17.92 7.43744 17.64 7.26244 17.465L5.56494 15.7675C5.31119 15.5138 5.31119 15.0938 5.56494 14.84C5.81869 14.5863 6.23869 14.5863 6.49244 14.84L8.19869 16.5463C8.36494 16.7125 8.64494 16.7125 8.81119 16.5463L10.6662 14.7C12.9324 15.4088 15.5137 14.8575 17.3162 13.0638C19.8974 10.4825 19.8974 6.27378 17.3162 3.69253ZM12.6874 10.5C11.4799 10.5 10.4999 9.52003 10.4999 8.31253C10.4999 7.10503 11.4799 6.12503 12.6874 6.12503C13.8949 6.12503 14.8749 7.10503 14.8749 8.31253C14.8749 9.52003 13.8949 10.5 12.6874 10.5Z" fill="#2E2836"/>
<path d="M12.6875 10.5C13.8956 10.5 14.875 9.52062 14.875 8.3125C14.875 7.10438 13.8956 6.125 12.6875 6.125C11.4794 6.125 10.5 7.10438 10.5 8.3125C10.5 9.52062 11.4794 10.5 12.6875 10.5Z" fill="#2E2836"/>
</svg>
