<svg width="30" height="30" viewBox="0 0 30 30" fill="none" xmlns="http://www.w3.org/2000/svg">
<path opacity="0.4" d="M11.25 9V20.9875C11.25 25 13.75 27.5 17.75 27.5H20.9875C24.9875 27.5 27.4875 25 27.4875 21V9C27.5 5 25 2.5 21 2.5H17.75C13.75 2.5 11.25 5 11.25 9Z" fill="#FF1971"/>
<path d="M15.5375 10.1499L19.725 14.3374C20.0875 14.6999 20.0875 15.2999 19.725 15.6624L15.5375 19.8499C15.175 20.2124 14.575 20.2124 14.2125 19.8499C13.85 19.4874 13.85 18.8874 14.2125 18.5249L16.8 15.9374H3.4375C2.925 15.9374 2.5 15.5124 2.5 14.9999C2.5 14.4874 2.925 14.0624 3.4375 14.0624H16.8L14.2125 11.4749C14.025 11.2874 13.9375 11.0499 13.9375 10.8124C13.9375 10.5749 14.025 10.3374 14.2125 10.1499C14.575 9.7749 15.1625 9.7749 15.5375 10.1499Z" fill="#FF1971"/>
</svg>
