<svg width="12" height="12" viewBox="0 0 12 12" fill="none" xmlns="http://www.w3.org/2000/svg">
<g clip-path="url(#clip0_58_757)">
<path opacity="0.4" d="M4.44001 2.3C4.04001 0.570001 1.43501 0.565001 1.03501 2.3C0.800012 3.315 1.44501 4.175 2.00501 4.71C2.41501 5.095 3.06001 5.095 3.47001 4.71C4.03001 4.175 4.67001 3.315 4.44001 2.3ZM2.75501 3.1C2.48001 3.1 2.25501 2.875 2.25501 2.6C2.25501 2.325 2.47501 2.1 2.75001 2.1H2.75501C3.03501 2.1 3.25501 2.325 3.25501 2.6C3.25501 2.875 3.03501 3.1 2.75501 3.1Z" fill="#FF1971"/>
<path d="M3.255 2.6C3.255 2.875 3.035 3.1 2.755 3.1C2.48 3.1 2.255 2.875 2.255 2.6C2.255 2.325 2.475 2.1 2.75 2.1H2.755C3.035 2.1 3.255 2.325 3.255 2.6Z" fill="#FF1971"/>
<path opacity="0.4" d="M10.955 8.3C10.555 6.57 7.94 6.565 7.535 8.3C7.3 9.315 7.945 10.175 8.51 10.71C8.92 11.095 9.57 11.095 9.98 10.71C10.545 10.175 11.19 9.315 10.955 8.3ZM9.265 9.1C8.99 9.1 8.765 8.875 8.765 8.6C8.765 8.325 8.985 8.1 9.26 8.1H9.265C9.54 8.1 9.765 8.325 9.765 8.6C9.765 8.875 9.54 9.1 9.265 9.1Z" fill="#FF1971"/>
<path d="M9.76501 8.6C9.76501 8.875 9.54001 9.1 9.26501 9.1C8.99001 9.1 8.76501 8.875 8.76501 8.6C8.76501 8.325 8.98501 8.1 9.26001 8.1H9.26501C9.54001 8.1 9.76501 8.325 9.76501 8.6Z" fill="#FF1971"/>
<path d="M5.99997 9.875H4.65997C4.07997 9.875 3.57497 9.525 3.37497 8.985C3.16997 8.445 3.31997 7.85 3.75497 7.465L7.74997 3.97C7.98997 3.76 7.99497 3.475 7.92497 3.28C7.84997 3.085 7.65997 2.875 7.33997 2.875H5.99997C5.79497 2.875 5.62497 2.705 5.62497 2.5C5.62497 2.295 5.79497 2.125 5.99997 2.125H7.33997C7.91997 2.125 8.42497 2.475 8.62497 3.015C8.82997 3.555 8.67997 4.15 8.24497 4.535L4.24997 8.03C4.00997 8.24 4.00497 8.525 4.07497 8.72C4.14997 8.915 4.33997 9.125 4.65997 9.125H5.99997C6.20497 9.125 6.37497 9.295 6.37497 9.5C6.37497 9.705 6.20497 9.875 5.99997 9.875Z" fill="#FF1971"/>
</g>
<defs>
<clipPath id="clip0_58_757">
<rect width="12" height="12" fill="white"/>
</clipPath>
</defs>
</svg>
