<svg width="21" height="21" viewBox="0 0 21 21" fill="none" xmlns="http://www.w3.org/2000/svg">
<g opacity="0.4">
<path opacity="0.4" d="M9.63375 17.5175C13.9878 17.5175 17.5175 13.9878 17.5175 9.63375C17.5175 5.27968 13.9878 1.75 9.63375 1.75C5.27968 1.75 1.75 5.27968 1.75 9.63375C1.75 13.9878 5.27968 17.5175 9.63375 17.5175Z" fill="#2E2836"/>
<path d="M19.2413 16.5813C18.9525 16.0475 18.34 15.75 17.5175 15.75C16.8963 15.75 16.3625 16.0038 16.0475 16.4413C15.7325 16.8788 15.6625 17.465 15.855 18.0513C16.2313 19.1888 16.8875 19.4425 17.2463 19.4863C17.2988 19.495 17.3513 19.495 17.4125 19.495C17.7975 19.495 18.3925 19.3288 18.97 18.4625C19.4338 17.7888 19.5213 17.115 19.2413 16.5813Z" fill="#2E2836"/>
</g>
</svg>
