<svg width="12" height="12" viewBox="0 0 12 12" fill="none" xmlns="http://www.w3.org/2000/svg">
<path d="M7.03637 0.866522L8.09525 2.99601C8.23793 3.29052 8.62094 3.56992 8.94387 3.63033L10.8589 3.94749C12.083 4.15138 12.3684 5.04244 11.4897 5.9335L9.99525 7.43623C9.74742 7.68543 9.60476 8.17627 9.68736 8.53118L10.1154 10.3888C10.4534 11.8538 9.67234 12.4277 8.38814 11.6575L6.59327 10.5852C6.27034 10.3888 5.72964 10.3888 5.40671 10.5852L3.61183 11.6575C2.32764 12.4201 1.54662 11.8538 1.88457 10.3888L2.31264 8.53118C2.39524 8.18382 2.25255 7.69298 2.00473 7.43623L0.510264 5.9335C-0.368394 5.04999 -0.083021 4.15893 1.14109 3.94749L3.05611 3.63033C3.37903 3.57747 3.76204 3.29052 3.90473 2.99601L4.96363 0.866522C5.52687 -0.288841 6.45811 -0.288841 7.03637 0.866522Z" fill="#E0EFDC"/>
</svg>
